<mxfile host="app.diagrams.net" modified="2020-12-10T12:10:41.556Z" agent="5.0 (Windows NT 10.0; Win64; x64) AppleWebKit/537.36 (KHTML, like Gecko) Chrome/87.0.4280.88 Safari/537.36" etag="39VIDMOhMvGV3iXM43yi" version="13.11.0" type="github">
  <diagram id="TA-FUFab7nw_JOYcnHtT" name="第 1 页">
    <mxGraphModel dx="981" dy="526" grid="1" gridSize="10" guides="1" tooltips="1" connect="1" arrows="1" fold="1" page="1" pageScale="1" pageWidth="827" pageHeight="1169" math="0" shadow="0">
      <root>
        <mxCell id="0" />
        <mxCell id="1" parent="0" />
        <mxCell id="2TGBst09kyb7uebUgkE0-3" style="edgeStyle=orthogonalEdgeStyle;rounded=0;orthogonalLoop=1;jettySize=auto;html=1;exitX=0.5;exitY=1;exitDx=0;exitDy=0;entryX=0.5;entryY=0;entryDx=0;entryDy=0;" parent="1" source="2TGBst09kyb7uebUgkE0-1" target="2TGBst09kyb7uebUgkE0-2" edge="1">
          <mxGeometry relative="1" as="geometry" />
        </mxCell>
        <mxCell id="2TGBst09kyb7uebUgkE0-1" value="Start" style="rounded=1;whiteSpace=wrap;html=1;" parent="1" vertex="1">
          <mxGeometry x="407.5" y="10" width="80" height="30" as="geometry" />
        </mxCell>
        <mxCell id="hAHhUFIz-8pFZhc0w7Rz-2" style="rounded=0;orthogonalLoop=1;jettySize=auto;html=1;exitX=0.5;exitY=1;exitDx=0;exitDy=0;entryX=0.5;entryY=0;entryDx=0;entryDy=0;" edge="1" parent="1" source="2TGBst09kyb7uebUgkE0-2" target="hAHhUFIz-8pFZhc0w7Rz-1">
          <mxGeometry relative="1" as="geometry" />
        </mxCell>
        <mxCell id="2TGBst09kyb7uebUgkE0-2" value="产品负责人：需求评审会" style="rounded=1;whiteSpace=wrap;html=1;" parent="1" vertex="1">
          <mxGeometry x="371.25" y="80" width="152.5" height="40" as="geometry" />
        </mxCell>
        <mxCell id="hAHhUFIz-8pFZhc0w7Rz-32" style="edgeStyle=none;rounded=0;orthogonalLoop=1;jettySize=auto;html=1;exitX=0;exitY=0.5;exitDx=0;exitDy=0;entryX=1;entryY=0.5;entryDx=0;entryDy=0;" edge="1" parent="1" source="2TGBst09kyb7uebUgkE0-5" target="hAHhUFIz-8pFZhc0w7Rz-7">
          <mxGeometry relative="1" as="geometry" />
        </mxCell>
        <mxCell id="2TGBst09kyb7uebUgkE0-5" value="产品负责人：需求澄清会" style="rounded=1;whiteSpace=wrap;html=1;" parent="1" vertex="1">
          <mxGeometry x="583.5" y="277.5" width="140" height="35" as="geometry" />
        </mxCell>
        <mxCell id="2TGBst09kyb7uebUgkE0-7" value="研发负责人：技术评审会" style="rounded=1;whiteSpace=wrap;html=1;" parent="1" vertex="1">
          <mxGeometry x="371.25" y="565" width="152.5" height="40" as="geometry" />
        </mxCell>
        <mxCell id="2TGBst09kyb7uebUgkE0-15" style="rounded=0;orthogonalLoop=1;jettySize=auto;html=1;exitX=0.5;exitY=1;exitDx=0;exitDy=0;entryX=0.5;entryY=0;entryDx=0;entryDy=0;" parent="1" source="2TGBst09kyb7uebUgkE0-7" target="2TGBst09kyb7uebUgkE0-12" edge="1">
          <mxGeometry relative="1" as="geometry">
            <mxPoint x="446.25" y="715" as="sourcePoint" />
          </mxGeometry>
        </mxCell>
        <mxCell id="2TGBst09kyb7uebUgkE0-16" style="edgeStyle=none;rounded=0;orthogonalLoop=1;jettySize=auto;html=1;exitX=0.5;exitY=1;exitDx=0;exitDy=0;entryX=0.5;entryY=0;entryDx=0;entryDy=0;" parent="1" source="2TGBst09kyb7uebUgkE0-7" target="2TGBst09kyb7uebUgkE0-13" edge="1">
          <mxGeometry relative="1" as="geometry">
            <mxPoint x="446.25" y="715" as="sourcePoint" />
          </mxGeometry>
        </mxCell>
        <mxCell id="2TGBst09kyb7uebUgkE0-18" style="edgeStyle=none;rounded=0;orthogonalLoop=1;jettySize=auto;html=1;exitX=0.5;exitY=1;exitDx=0;exitDy=0;entryX=0.25;entryY=0;entryDx=0;entryDy=0;" parent="1" source="2TGBst09kyb7uebUgkE0-12" target="2TGBst09kyb7uebUgkE0-17" edge="1">
          <mxGeometry relative="1" as="geometry" />
        </mxCell>
        <mxCell id="2TGBst09kyb7uebUgkE0-12" value="技术组：进入研发阶段" style="rounded=1;whiteSpace=wrap;html=1;" parent="1" vertex="1">
          <mxGeometry x="294.62" y="657.5" width="140" height="40" as="geometry" />
        </mxCell>
        <mxCell id="2TGBst09kyb7uebUgkE0-19" style="edgeStyle=none;rounded=0;orthogonalLoop=1;jettySize=auto;html=1;exitX=0.5;exitY=1;exitDx=0;exitDy=0;entryX=0.75;entryY=0;entryDx=0;entryDy=0;" parent="1" source="2TGBst09kyb7uebUgkE0-13" target="2TGBst09kyb7uebUgkE0-17" edge="1">
          <mxGeometry relative="1" as="geometry" />
        </mxCell>
        <mxCell id="2TGBst09kyb7uebUgkE0-13" value="测试组：测试用例编写" style="rounded=1;whiteSpace=wrap;html=1;" parent="1" vertex="1">
          <mxGeometry x="459.62" y="657.5" width="137.5" height="40" as="geometry" />
        </mxCell>
        <mxCell id="2TGBst09kyb7uebUgkE0-21" style="edgeStyle=none;rounded=0;orthogonalLoop=1;jettySize=auto;html=1;exitX=0.5;exitY=1;exitDx=0;exitDy=0;entryX=0.5;entryY=0;entryDx=0;entryDy=0;" parent="1" source="2TGBst09kyb7uebUgkE0-17" target="2TGBst09kyb7uebUgkE0-20" edge="1">
          <mxGeometry relative="1" as="geometry" />
        </mxCell>
        <mxCell id="2TGBst09kyb7uebUgkE0-17" value="测试负责人：用例评审会" style="rounded=1;whiteSpace=wrap;html=1;" parent="1" vertex="1">
          <mxGeometry x="371.25" y="740" width="152.5" height="40" as="geometry" />
        </mxCell>
        <mxCell id="2TGBst09kyb7uebUgkE0-23" style="edgeStyle=none;rounded=0;orthogonalLoop=1;jettySize=auto;html=1;exitX=0.5;exitY=1;exitDx=0;exitDy=0;entryX=0.5;entryY=0;entryDx=0;entryDy=0;" parent="1" source="2TGBst09kyb7uebUgkE0-20" target="2TGBst09kyb7uebUgkE0-22" edge="1">
          <mxGeometry relative="1" as="geometry" />
        </mxCell>
        <mxCell id="2TGBst09kyb7uebUgkE0-20" value="技术组：进入联调阶段" style="rounded=1;whiteSpace=wrap;html=1;" parent="1" vertex="1">
          <mxGeometry x="377.5" y="820" width="140" height="40" as="geometry" />
        </mxCell>
        <mxCell id="2TGBst09kyb7uebUgkE0-25" style="edgeStyle=none;rounded=0;orthogonalLoop=1;jettySize=auto;html=1;exitX=0.5;exitY=1;exitDx=0;exitDy=0;entryX=0.5;entryY=0;entryDx=0;entryDy=0;" parent="1" source="hAHhUFIz-8pFZhc0w7Rz-44" target="2TGBst09kyb7uebUgkE0-24" edge="1">
          <mxGeometry relative="1" as="geometry" />
        </mxCell>
        <mxCell id="2TGBst09kyb7uebUgkE0-22" value="技术负责人：提测阶段" style="rounded=1;whiteSpace=wrap;html=1;" parent="1" vertex="1">
          <mxGeometry x="376.25" y="890" width="142.5" height="30" as="geometry" />
        </mxCell>
        <mxCell id="2TGBst09kyb7uebUgkE0-27" style="edgeStyle=none;rounded=0;orthogonalLoop=1;jettySize=auto;html=1;exitX=0.5;exitY=1;exitDx=0;exitDy=0;entryX=0.5;entryY=0;entryDx=0;entryDy=0;" parent="1" source="2TGBst09kyb7uebUgkE0-24" target="2TGBst09kyb7uebUgkE0-26" edge="1">
          <mxGeometry relative="1" as="geometry" />
        </mxCell>
        <mxCell id="2TGBst09kyb7uebUgkE0-24" value="测试组：测试阶段&lt;br&gt;(测试为主，技术为辅)" style="rounded=1;whiteSpace=wrap;html=1;" parent="1" vertex="1">
          <mxGeometry x="372.5" y="1090" width="150" height="50" as="geometry" />
        </mxCell>
        <mxCell id="2TGBst09kyb7uebUgkE0-30" style="edgeStyle=none;rounded=0;orthogonalLoop=1;jettySize=auto;html=1;exitX=0.5;exitY=1;exitDx=0;exitDy=0;entryX=0.5;entryY=0;entryDx=0;entryDy=0;" parent="1" source="2TGBst09kyb7uebUgkE0-26" target="2TGBst09kyb7uebUgkE0-29" edge="1">
          <mxGeometry relative="1" as="geometry" />
        </mxCell>
        <mxCell id="2TGBst09kyb7uebUgkE0-26" value="产品组：验收阶段&lt;br&gt;(产品和测试为主，技术为辅)" style="rounded=1;whiteSpace=wrap;html=1;" parent="1" vertex="1">
          <mxGeometry x="357.5" y="1180" width="180" height="50" as="geometry" />
        </mxCell>
        <mxCell id="2TGBst09kyb7uebUgkE0-33" style="edgeStyle=none;rounded=0;orthogonalLoop=1;jettySize=auto;html=1;exitX=0.25;exitY=1;exitDx=0;exitDy=0;entryX=0.5;entryY=0;entryDx=0;entryDy=0;" parent="1" source="2TGBst09kyb7uebUgkE0-29" target="2TGBst09kyb7uebUgkE0-31" edge="1">
          <mxGeometry relative="1" as="geometry" />
        </mxCell>
        <mxCell id="2TGBst09kyb7uebUgkE0-34" style="edgeStyle=none;rounded=0;orthogonalLoop=1;jettySize=auto;html=1;exitX=0.75;exitY=1;exitDx=0;exitDy=0;entryX=0.5;entryY=0;entryDx=0;entryDy=0;" parent="1" source="2TGBst09kyb7uebUgkE0-29" target="2TGBst09kyb7uebUgkE0-32" edge="1">
          <mxGeometry relative="1" as="geometry" />
        </mxCell>
        <mxCell id="2TGBst09kyb7uebUgkE0-29" value="运维负责人：上线操作" style="rounded=1;whiteSpace=wrap;html=1;" parent="1" vertex="1">
          <mxGeometry x="371.25" y="1265" width="152.5" height="40" as="geometry" />
        </mxCell>
        <mxCell id="2TGBst09kyb7uebUgkE0-36" style="edgeStyle=none;rounded=0;orthogonalLoop=1;jettySize=auto;html=1;exitX=0.5;exitY=1;exitDx=0;exitDy=0;entryX=0.5;entryY=0;entryDx=0;entryDy=0;" parent="1" source="2TGBst09kyb7uebUgkE0-31" target="2TGBst09kyb7uebUgkE0-35" edge="1">
          <mxGeometry relative="1" as="geometry" />
        </mxCell>
        <mxCell id="2TGBst09kyb7uebUgkE0-31" value="测试组：线上测试和验证" style="rounded=1;whiteSpace=wrap;html=1;" parent="1" vertex="1">
          <mxGeometry x="275" y="1350" width="150" height="40" as="geometry" />
        </mxCell>
        <mxCell id="2TGBst09kyb7uebUgkE0-37" style="edgeStyle=none;rounded=0;orthogonalLoop=1;jettySize=auto;html=1;exitX=0.5;exitY=1;exitDx=0;exitDy=0;" parent="1" source="2TGBst09kyb7uebUgkE0-32" edge="1">
          <mxGeometry relative="1" as="geometry">
            <mxPoint x="447.5" y="1430" as="targetPoint" />
          </mxGeometry>
        </mxCell>
        <mxCell id="2TGBst09kyb7uebUgkE0-32" value="产品组：需求验证" style="rounded=1;whiteSpace=wrap;html=1;" parent="1" vertex="1">
          <mxGeometry x="507" y="1350" width="113" height="40" as="geometry" />
        </mxCell>
        <mxCell id="2TGBst09kyb7uebUgkE0-35" value="End" style="rounded=1;whiteSpace=wrap;html=1;" parent="1" vertex="1">
          <mxGeometry x="387.5" y="1430" width="120" height="40" as="geometry" />
        </mxCell>
        <mxCell id="7xkqyvosI3lrS_u9Jpyt-2" value="" style="strokeWidth=2;html=1;shape=mxgraph.flowchart.annotation_2;align=left;labelPosition=right;pointerEvents=1;fillColor=#ffe6cc;strokeColor=#d79b00;" parent="1" vertex="1">
          <mxGeometry x="267.5" y="70" width="50" height="150" as="geometry" />
        </mxCell>
        <mxCell id="7xkqyvosI3lrS_u9Jpyt-3" value="需求分析阶段" style="text;html=1;align=center;verticalAlign=middle;resizable=0;points=[];autosize=1;fillColor=#ffe6cc;strokeColor=#d79b00;" parent="1" vertex="1">
          <mxGeometry x="170" y="135" width="90" height="20" as="geometry" />
        </mxCell>
        <mxCell id="7xkqyvosI3lrS_u9Jpyt-5" value="" style="strokeWidth=2;html=1;shape=mxgraph.flowchart.annotation_2;align=left;labelPosition=right;pointerEvents=1;fillColor=#ffe6cc;strokeColor=#d79b00;" parent="1" vertex="1">
          <mxGeometry x="267.5" y="270" width="50" height="50" as="geometry" />
        </mxCell>
        <mxCell id="7xkqyvosI3lrS_u9Jpyt-6" value="概要设计" style="text;html=1;align=center;verticalAlign=middle;resizable=0;points=[];autosize=1;fillColor=#ffe6cc;strokeColor=#d79b00;" parent="1" vertex="1">
          <mxGeometry x="186.5" y="285" width="60" height="20" as="geometry" />
        </mxCell>
        <mxCell id="7xkqyvosI3lrS_u9Jpyt-8" value="" style="strokeWidth=2;html=1;shape=mxgraph.flowchart.annotation_2;align=left;labelPosition=right;pointerEvents=1;fillColor=#ffe6cc;strokeColor=#d79b00;" parent="1" vertex="1">
          <mxGeometry x="162.5" y="350" width="50" height="260" as="geometry" />
        </mxCell>
        <mxCell id="7xkqyvosI3lrS_u9Jpyt-9" value="详细设计" style="text;html=1;align=center;verticalAlign=middle;resizable=0;points=[];autosize=1;fillColor=#ffe6cc;strokeColor=#d79b00;" parent="1" vertex="1">
          <mxGeometry x="90" y="470" width="60" height="20" as="geometry" />
        </mxCell>
        <mxCell id="hAHhUFIz-8pFZhc0w7Rz-26" style="edgeStyle=none;rounded=0;orthogonalLoop=1;jettySize=auto;html=1;" edge="1" parent="1" source="hAHhUFIz-8pFZhc0w7Rz-27" target="hAHhUFIz-8pFZhc0w7Rz-7">
          <mxGeometry relative="1" as="geometry">
            <mxPoint x="447.5" y="260" as="sourcePoint" />
          </mxGeometry>
        </mxCell>
        <mxCell id="hAHhUFIz-8pFZhc0w7Rz-29" style="edgeStyle=orthogonalEdgeStyle;rounded=0;orthogonalLoop=1;jettySize=auto;html=1;exitX=1;exitY=0.5;exitDx=0;exitDy=0;entryX=0.5;entryY=0;entryDx=0;entryDy=0;" edge="1" parent="1" source="hAHhUFIz-8pFZhc0w7Rz-30" target="2TGBst09kyb7uebUgkE0-5">
          <mxGeometry relative="1" as="geometry" />
        </mxCell>
        <mxCell id="hAHhUFIz-8pFZhc0w7Rz-1" value="是否有需要再次&lt;br&gt;确认的需求问题？" style="rhombus;whiteSpace=wrap;html=1;" vertex="1" parent="1">
          <mxGeometry x="342.5" y="150" width="210" height="60" as="geometry" />
        </mxCell>
        <mxCell id="hAHhUFIz-8pFZhc0w7Rz-10" style="edgeStyle=none;rounded=0;orthogonalLoop=1;jettySize=auto;html=1;exitX=0.5;exitY=1;exitDx=0;exitDy=0;entryX=0.5;entryY=0;entryDx=0;entryDy=0;" edge="1" parent="1" source="hAHhUFIz-8pFZhc0w7Rz-7" target="hAHhUFIz-8pFZhc0w7Rz-9">
          <mxGeometry relative="1" as="geometry" />
        </mxCell>
        <mxCell id="hAHhUFIz-8pFZhc0w7Rz-7" value="&amp;nbsp;研发负责人：给出出方案时间" style="rounded=1;whiteSpace=wrap;html=1;" vertex="1" parent="1">
          <mxGeometry x="357.5" y="270" width="176.75" height="50" as="geometry" />
        </mxCell>
        <mxCell id="hAHhUFIz-8pFZhc0w7Rz-33" style="edgeStyle=none;rounded=0;orthogonalLoop=1;jettySize=auto;html=1;exitX=0.496;exitY=0.976;exitDx=0;exitDy=0;entryX=0.5;entryY=0;entryDx=0;entryDy=0;exitPerimeter=0;" edge="1" parent="1" source="hAHhUFIz-8pFZhc0w7Rz-34" target="hAHhUFIz-8pFZhc0w7Rz-18">
          <mxGeometry relative="1" as="geometry">
            <mxPoint x="437" y="470.0000000000001" as="sourcePoint" />
          </mxGeometry>
        </mxCell>
        <mxCell id="hAHhUFIz-8pFZhc0w7Rz-37" style="rounded=0;orthogonalLoop=1;jettySize=auto;html=1;exitX=0.5;exitY=0.952;exitDx=0;exitDy=0;entryX=0.482;entryY=-0.03;entryDx=0;entryDy=0;entryPerimeter=0;exitPerimeter=0;" edge="1" parent="1" source="hAHhUFIz-8pFZhc0w7Rz-38" target="hAHhUFIz-8pFZhc0w7Rz-19">
          <mxGeometry relative="1" as="geometry">
            <mxPoint x="624.1199999999999" y="430.9" as="targetPoint" />
          </mxGeometry>
        </mxCell>
        <mxCell id="hAHhUFIz-8pFZhc0w7Rz-9" value="需求点存在技术探索和困难，&lt;br&gt;需要花费时间确定具体情况？" style="rhombus;whiteSpace=wrap;html=1;" vertex="1" parent="1">
          <mxGeometry x="309.87" y="360" width="272" height="80" as="geometry" />
        </mxCell>
        <mxCell id="hAHhUFIz-8pFZhc0w7Rz-40" style="edgeStyle=none;rounded=0;orthogonalLoop=1;jettySize=auto;html=1;exitX=0.5;exitY=1;exitDx=0;exitDy=0;entryX=0.5;entryY=0;entryDx=0;entryDy=0;" edge="1" parent="1" source="hAHhUFIz-8pFZhc0w7Rz-18" target="2TGBst09kyb7uebUgkE0-7">
          <mxGeometry relative="1" as="geometry">
            <mxPoint x="396.11538461538476" y="555" as="targetPoint" />
          </mxGeometry>
        </mxCell>
        <mxCell id="hAHhUFIz-8pFZhc0w7Rz-18" value="三天内给出" style="rounded=1;whiteSpace=wrap;html=1;" vertex="1" parent="1">
          <mxGeometry x="229.5" y="470" width="102" height="40" as="geometry" />
        </mxCell>
        <mxCell id="hAHhUFIz-8pFZhc0w7Rz-41" style="edgeStyle=none;rounded=0;orthogonalLoop=1;jettySize=auto;html=1;exitX=0.5;exitY=1;exitDx=0;exitDy=0;entryX=0.5;entryY=0;entryDx=0;entryDy=0;" edge="1" parent="1" source="hAHhUFIz-8pFZhc0w7Rz-19" target="2TGBst09kyb7uebUgkE0-7">
          <mxGeometry relative="1" as="geometry">
            <mxPoint x="447.5" y="555" as="targetPoint" />
          </mxGeometry>
        </mxCell>
        <mxCell id="hAHhUFIz-8pFZhc0w7Rz-19" value="一天内给出" style="rounded=1;whiteSpace=wrap;html=1;" vertex="1" parent="1">
          <mxGeometry x="563.5" y="470" width="102" height="40" as="geometry" />
        </mxCell>
        <mxCell id="hAHhUFIz-8pFZhc0w7Rz-27" value="否" style="text;html=1;align=center;verticalAlign=middle;resizable=0;points=[];autosize=1;" vertex="1" parent="1">
          <mxGeometry x="432.5" y="230" width="30" height="20" as="geometry" />
        </mxCell>
        <mxCell id="hAHhUFIz-8pFZhc0w7Rz-28" style="edgeStyle=none;rounded=0;orthogonalLoop=1;jettySize=auto;html=1;exitX=0.5;exitY=1;exitDx=0;exitDy=0;" edge="1" parent="1" source="hAHhUFIz-8pFZhc0w7Rz-1" target="hAHhUFIz-8pFZhc0w7Rz-27">
          <mxGeometry relative="1" as="geometry">
            <mxPoint x="447.5" y="210" as="sourcePoint" />
            <mxPoint x="447.5" y="260" as="targetPoint" />
          </mxGeometry>
        </mxCell>
        <mxCell id="hAHhUFIz-8pFZhc0w7Rz-30" value="是" style="text;html=1;align=center;verticalAlign=middle;resizable=0;points=[];autosize=1;" vertex="1" parent="1">
          <mxGeometry x="597.5" y="170" width="30" height="20" as="geometry" />
        </mxCell>
        <mxCell id="hAHhUFIz-8pFZhc0w7Rz-31" style="rounded=0;orthogonalLoop=1;jettySize=auto;html=1;exitX=1;exitY=0.5;exitDx=0;exitDy=0;" edge="1" parent="1" source="hAHhUFIz-8pFZhc0w7Rz-1" target="hAHhUFIz-8pFZhc0w7Rz-30">
          <mxGeometry relative="1" as="geometry">
            <mxPoint x="552.5" y="180" as="sourcePoint" />
            <mxPoint x="660" y="275" as="targetPoint" />
          </mxGeometry>
        </mxCell>
        <mxCell id="hAHhUFIz-8pFZhc0w7Rz-34" value="是" style="text;html=1;align=center;verticalAlign=middle;resizable=0;points=[];autosize=1;" vertex="1" parent="1">
          <mxGeometry x="266" y="430" width="30" height="20" as="geometry" />
        </mxCell>
        <mxCell id="hAHhUFIz-8pFZhc0w7Rz-35" style="edgeStyle=orthogonalEdgeStyle;rounded=0;orthogonalLoop=1;jettySize=auto;html=1;entryX=0.5;entryY=0;entryDx=0;entryDy=0;" edge="1" parent="1" target="hAHhUFIz-8pFZhc0w7Rz-34">
          <mxGeometry relative="1" as="geometry">
            <mxPoint x="310" y="400" as="sourcePoint" />
            <mxPoint x="447.5" y="485" as="targetPoint" />
          </mxGeometry>
        </mxCell>
        <mxCell id="hAHhUFIz-8pFZhc0w7Rz-38" value="否" style="text;html=1;align=center;verticalAlign=middle;resizable=0;points=[];autosize=1;" vertex="1" parent="1">
          <mxGeometry x="598.5" y="430" width="30" height="20" as="geometry" />
        </mxCell>
        <mxCell id="hAHhUFIz-8pFZhc0w7Rz-39" style="edgeStyle=orthogonalEdgeStyle;rounded=0;orthogonalLoop=1;jettySize=auto;html=1;exitX=1;exitY=0.5;exitDx=0;exitDy=0;entryX=0.482;entryY=-0.03;entryDx=0;entryDy=0;entryPerimeter=0;" edge="1" parent="1" source="hAHhUFIz-8pFZhc0w7Rz-9" target="hAHhUFIz-8pFZhc0w7Rz-38">
          <mxGeometry relative="1" as="geometry">
            <mxPoint x="583.5" y="400" as="sourcePoint" />
            <mxPoint x="623.1640000000001" y="498.80000000000007" as="targetPoint" />
            <Array as="points" />
          </mxGeometry>
        </mxCell>
        <mxCell id="hAHhUFIz-8pFZhc0w7Rz-46" style="edgeStyle=orthogonalEdgeStyle;rounded=0;orthogonalLoop=1;jettySize=auto;html=1;exitX=0.561;exitY=0.033;exitDx=0;exitDy=0;entryX=1;entryY=0.5;entryDx=0;entryDy=0;exitPerimeter=0;" edge="1" parent="1" source="hAHhUFIz-8pFZhc0w7Rz-47" target="2TGBst09kyb7uebUgkE0-20">
          <mxGeometry relative="1" as="geometry">
            <Array as="points" />
          </mxGeometry>
        </mxCell>
        <mxCell id="hAHhUFIz-8pFZhc0w7Rz-51" style="edgeStyle=orthogonalEdgeStyle;rounded=0;orthogonalLoop=1;jettySize=auto;html=1;exitX=1;exitY=0.5;exitDx=0;exitDy=0;entryX=0.528;entryY=1.067;entryDx=0;entryDy=0;entryPerimeter=0;" edge="1" parent="1" source="hAHhUFIz-8pFZhc0w7Rz-42" target="hAHhUFIz-8pFZhc0w7Rz-47">
          <mxGeometry relative="1" as="geometry" />
        </mxCell>
        <mxCell id="hAHhUFIz-8pFZhc0w7Rz-42" value="通过测试规范&lt;br&gt;和达到提测标准" style="rhombus;whiteSpace=wrap;html=1;rounded=0;" vertex="1" parent="1">
          <mxGeometry x="375.5" y="950" width="144" height="70" as="geometry" />
        </mxCell>
        <mxCell id="hAHhUFIz-8pFZhc0w7Rz-43" style="edgeStyle=none;rounded=0;orthogonalLoop=1;jettySize=auto;html=1;exitX=0.5;exitY=1;exitDx=0;exitDy=0;entryX=0.5;entryY=0;entryDx=0;entryDy=0;" edge="1" parent="1" source="2TGBst09kyb7uebUgkE0-22" target="hAHhUFIz-8pFZhc0w7Rz-42">
          <mxGeometry relative="1" as="geometry">
            <mxPoint x="447.5" y="920" as="sourcePoint" />
            <mxPoint x="447.5" y="1070" as="targetPoint" />
          </mxGeometry>
        </mxCell>
        <mxCell id="hAHhUFIz-8pFZhc0w7Rz-44" value="是" style="text;html=1;align=center;verticalAlign=middle;resizable=0;points=[];autosize=1;" vertex="1" parent="1">
          <mxGeometry x="432.5" y="1044" width="30" height="20" as="geometry" />
        </mxCell>
        <mxCell id="hAHhUFIz-8pFZhc0w7Rz-45" style="edgeStyle=none;rounded=0;orthogonalLoop=1;jettySize=auto;html=1;exitX=0.5;exitY=1;exitDx=0;exitDy=0;entryX=0.5;entryY=0;entryDx=0;entryDy=0;" edge="1" parent="1" source="hAHhUFIz-8pFZhc0w7Rz-42" target="hAHhUFIz-8pFZhc0w7Rz-44">
          <mxGeometry relative="1" as="geometry">
            <mxPoint x="447.5" y="1020" as="sourcePoint" />
            <mxPoint x="447.5" y="1090" as="targetPoint" />
          </mxGeometry>
        </mxCell>
        <mxCell id="hAHhUFIz-8pFZhc0w7Rz-47" value="否" style="text;html=1;align=center;verticalAlign=middle;resizable=0;points=[];autosize=1;" vertex="1" parent="1">
          <mxGeometry x="543.5" y="900" width="30" height="20" as="geometry" />
        </mxCell>
        <mxCell id="hAHhUFIz-8pFZhc0w7Rz-52" value="" style="strokeWidth=2;html=1;shape=mxgraph.flowchart.annotation_2;align=left;labelPosition=right;pointerEvents=1;fillColor=#ffe6cc;strokeColor=#d79b00;" vertex="1" parent="1">
          <mxGeometry x="217.5" y="650" width="50" height="220" as="geometry" />
        </mxCell>
        <mxCell id="hAHhUFIz-8pFZhc0w7Rz-53" value="编码" style="text;html=1;align=center;verticalAlign=middle;resizable=0;points=[];autosize=1;fillColor=#ffe6cc;strokeColor=#d79b00;" vertex="1" parent="1">
          <mxGeometry x="167.5" y="750" width="40" height="20" as="geometry" />
        </mxCell>
        <mxCell id="hAHhUFIz-8pFZhc0w7Rz-54" value="" style="strokeWidth=2;html=1;shape=mxgraph.flowchart.annotation_2;align=left;labelPosition=right;pointerEvents=1;fillColor=#ffe6cc;strokeColor=#d79b00;" vertex="1" parent="1">
          <mxGeometry x="215" y="880" width="50" height="270" as="geometry" />
        </mxCell>
        <mxCell id="hAHhUFIz-8pFZhc0w7Rz-55" value="测试" style="text;html=1;align=center;verticalAlign=middle;resizable=0;points=[];autosize=1;fillColor=#ffe6cc;strokeColor=#d79b00;" vertex="1" parent="1">
          <mxGeometry x="167.5" y="1005" width="40" height="20" as="geometry" />
        </mxCell>
        <mxCell id="hAHhUFIz-8pFZhc0w7Rz-56" value="" style="strokeWidth=2;html=1;shape=mxgraph.flowchart.annotation_2;align=left;labelPosition=right;pointerEvents=1;fillColor=#ffe6cc;strokeColor=#d79b00;" vertex="1" parent="1">
          <mxGeometry x="213.75" y="1160" width="50" height="240" as="geometry" />
        </mxCell>
        <mxCell id="hAHhUFIz-8pFZhc0w7Rz-57" value="验收" style="text;html=1;align=center;verticalAlign=middle;resizable=0;points=[];autosize=1;fillColor=#ffe6cc;strokeColor=#d79b00;" vertex="1" parent="1">
          <mxGeometry x="162.5" y="1270" width="40" height="20" as="geometry" />
        </mxCell>
      </root>
    </mxGraphModel>
  </diagram>
</mxfile>
